<?xml version="1.0" encoding="iso-8859-1"?>
<!-- Generator: Adobe Illustrator 21.0.0, SVG Export Plug-In . SVG Version: 6.00 Build 0)  -->
<svg xmlns="http://www.w3.org/2000/svg" xmlns:xlink="http://www.w3.org/1999/xlink" version="1.1" id="Capa_1" x="0px" y="0px" viewBox="0 0 512 512" style="enable-background:new 0 0 512 512;" xml:space="preserve" width="512px" height="512px">
<g>
	<g>
		<path d="M189.281,263.062c-30.299,0-54.949,24.65-54.949,54.948s24.651,54.949,54.949,54.949    c30.299,0,54.948-24.651,54.948-54.949C244.229,287.712,219.579,263.062,189.281,263.062z M189.281,342.945    c-13.748,0-24.933-11.185-24.933-24.933s11.185-24.932,24.933-24.932c13.748,0,24.932,11.184,24.932,24.932    C214.212,331.759,203.028,342.945,189.281,342.945z" fill="#e3e3e3"/>
	</g>
</g>
<g>
	<g>
		<path d="M511.914,218.376c-6.118-56.865-34.797-103.038-82.937-133.526c-35.87-22.718-69.848-28.66-71.276-28.902l-4.424-0.749    L0,210.176v91.067h15.008c13.748,0,24.932,11.185,24.932,24.933s-11.184,24.932-24.932,24.932H0v105.693h512V219.175    L511.914,218.376z M356.827,86.419c9.126,2.135,32.087,8.588,56.09,23.789c35.897,22.735,58.219,54.566,66.548,94.769H86.569    L356.827,86.419z M425.491,238.203c0,24.073-19.585,43.659-43.659,43.659c-24.074,0-43.66-19.586-43.66-43.659    c0-1.075,0.051-2.143,0.129-3.209h87.061C425.44,236.059,425.491,237.128,425.491,238.203z M302.43,426.785    c1.726-16.19,15.463-28.844,32.103-28.844s30.378,12.654,32.104,28.844H302.43z M481.983,426.786H396.74v-0.001    c-1.795-32.758-29.008-58.861-62.207-58.861s-60.41,26.101-62.206,58.861H30.017v-47.743c23.026-6.548,39.94-27.768,39.94-52.865    s-16.914-46.319-39.94-52.866v-38.315h278.217c-0.046,1.068-0.078,2.137-0.078,3.209c0,40.624,33.051,73.676,73.677,73.676    c40.625,0,73.676-33.051,73.676-73.676c0-1.072-0.031-2.14-0.078-3.209h26.554V426.786z" fill="#e3e3e3"/>
	</g>
</g>
<g>
</g>
<g>
</g>
<g>
</g>
<g>
</g>
<g>
</g>
<g>
</g>
<g>
</g>
<g>
</g>
<g>
</g>
<g>
</g>
<g>
</g>
<g>
</g>
<g>
</g>
<g>
</g>
<g>
</g>
</svg>
