<?xml version="1.0" encoding="iso-8859-1"?>
<!-- Generator: Adobe Illustrator 19.0.0, SVG Export Plug-In . SVG Version: 6.00 Build 0)  -->
<svg xmlns="http://www.w3.org/2000/svg" xmlns:xlink="http://www.w3.org/1999/xlink" version="1.1" id="Capa_1" x="0px" y="0px" viewBox="0 0 437.254 437.254" style="enable-background:new 0 0 437.254 437.254;" xml:space="preserve" width="512px" height="512px">
<g>
	<g>
		<path d="M346.997,121.462c-7.167-11.558-18.518-19.905-31.687-23.302l-0.08,0c0-0.48,0-1.04,0-1.52    C315.23,43.267,271.963,0,218.59,0s-96.64,43.267-96.64,96.64v1.52c-28.237,7.282-45.224,36.076-37.942,64.313    c3.396,13.169,11.743,24.52,23.302,31.687l13.28,30.32l90.72,208c1.783,4.043,6.505,5.875,10.548,4.092    c1.827-0.806,3.287-2.265,4.092-4.092l104-238.32C354.733,178.792,362.365,146.244,346.997,121.462z M218.59,409.28l-21.44-49.2    c12.068,5.306,24.602,9.484,37.44,12.48L218.59,409.28z M241.07,357.68c-18.793-4.195-36.913-10.98-53.84-20.16l-38.8-88.8    c26.24,18.8,69.84,43.2,120.56,44.88L241.07,357.68z M276.03,277.68c-72.56,0.64-132.88-52.8-141.44-60.8l-6.64-15.12    c2.358,0.345,4.737,0.532,7.12,0.56c13.638,0.038,26.753-5.243,36.56-14.72c13.373,25.913,45.222,36.079,71.135,22.705    c9.742-5.028,17.678-12.963,22.705-22.705c9.807,9.477,22.922,14.758,36.56,14.72c2.383-0.027,4.762-0.214,7.12-0.56    L276.03,277.68z M340.248,152.75c-1.768,19.135-17.963,33.689-37.178,33.41l-1.04,0.08c-12.816,0.035-24.714-6.642-31.36-17.6    c-2.307-3.742-7.202-4.921-10.96-2.64l-1.6,1.04c-1.919,1.08-3.308,2.903-3.84,5.04c-4.888,19.728-24.842,31.758-44.57,26.87    c-13.246-3.282-23.588-13.624-26.87-26.87c-0.532-2.137-1.921-3.96-3.84-5.04l-1.6-1.04c-3.758-2.281-8.653-1.102-10.96,2.64    c-10.726,17.264-33.415,22.564-50.679,11.838s-22.564-33.415-11.838-50.679c5.963-9.598,16.005-15.924,27.237-17.159    c4.408-0.298,7.74-4.113,7.443-8.521c-0.001-0.013-0.002-0.026-0.003-0.039c0-2.4,0-4.88,0-7.36    c0-44.536,36.104-80.64,80.64-80.64s80.64,36.104,80.64,80.64v7.36c-0.373,4.338,2.791,8.177,7.12,8.64    C327.228,114.59,342.118,132.512,340.248,152.75z" fill="#faf7fa"/>
	</g>
</g>
<g>
	<g>
		<path d="M212.75,31.2c-33.207,0.044-60.116,26.953-60.16,60.16c0,4.418,3.582,8,8,8s8-3.582,8-8    c0.044-24.371,19.789-44.116,44.16-44.16c4.418,0,8-3.582,8-8S217.168,31.2,212.75,31.2z" fill="#faf7fa"/>
	</g>
</g>
<g>
</g>
<g>
</g>
<g>
</g>
<g>
</g>
<g>
</g>
<g>
</g>
<g>
</g>
<g>
</g>
<g>
</g>
<g>
</g>
<g>
</g>
<g>
</g>
<g>
</g>
<g>
</g>
<g>
</g>
</svg>
