<?xml version="1.0" encoding="iso-8859-1"?>
<!-- Generator: Adobe Illustrator 19.0.0, SVG Export Plug-In . SVG Version: 6.00 Build 0)  -->
<svg xmlns="http://www.w3.org/2000/svg" xmlns:xlink="http://www.w3.org/1999/xlink" version="1.1" id="Capa_1" x="0px" y="0px" viewBox="0 0 511.998 511.998" style="enable-background:new 0 0 511.998 511.998;" xml:space="preserve" width="512px" height="512px">
<g>
	<g>
		<path d="M404.843,454.154l-25.401-260.54h3.527c12.087,0,21.921-9.834,21.921-21.922V126.09c0-12.088-9.834-21.923-21.921-21.923    h-7.934V44.723C375.034,20.062,354.972,0,330.312,0H184.818c-24.66,0-44.723,20.062-44.723,44.723v59.444H129.03    c-12.087,0-21.921,9.834-21.921,21.923v45.601c0,12.088,9.834,21.922,21.921,21.922h3.527l-25.401,260.54    c-1.36,13.946,3.343,27.635,13.242,38.545c10.964,12.085,27.258,19.3,43.586,19.3h184.03c16.328,0,32.622-7.215,43.586-19.3    C401.5,481.789,406.202,468.1,404.843,454.154z M129.031,173.613c-1.042,0-1.922-0.88-1.922-1.922V126.09    c0-1.043,0.88-1.923,1.921-1.923h62.503c5.523,0,10-4.477,10-10s-4.477-10-10-10h-31.438V44.723    c0-13.632,11.09-24.723,24.723-24.723h145.494c13.632,0,24.723,11.09,24.723,24.723v59.444h-87.006c-5.523,0-10,4.477-10,10    s4.477,10,10,10h114.94c1.042,0,1.921,0.88,1.921,1.923v45.601c0,1.042-0.88,1.922-1.921,1.922H129.031z M376.789,479.26    c-7.237,7.977-17.994,12.739-28.774,12.739h-184.03c-10.781,0-21.538-4.762-28.774-12.739c-6.06-6.679-8.954-14.906-8.148-23.166    l25.59-262.481h206.695l25.59,262.481C385.742,464.354,382.848,472.581,376.789,479.26z" fill="#e3e3e3"/>
	</g>
</g>
<g>
	<g>
		<path d="M364.986,457.578l-15.454-158.514c-0.393-4.036-3.185-7.435-7.068-8.605c-2.285-0.69-56.733-16.182-123.168,43.127    c-13.593,12.135-31.078,17.531-51.973,16.041c-5.407-0.388-10.139,3.608-10.665,9.004l-9.646,98.947    c-0.195,2.001,0.217,4.015,1.184,5.778c3.452,6.295,11.516,8.642,15.788,8.642h66.097c5.523,0,10-4.477,10-10s-4.477-10-10-10    H167.65l8.007-82.134c22.278-0.311,41.405-7.475,56.957-21.358c30.193-26.954,56.944-36.074,74.069-38.978    c10.321-1.75,18.487-1.517,23.679-0.971l13.985,143.441h-23.664h-14.108c-5.523,0-10,4.477-10,10s4.477,10,10,10h14.108h27.33    c4.272,0,12.335-2.346,15.788-8.64C364.768,461.594,365.181,459.58,364.986,457.578z" fill="#e3e3e3"/>
	</g>
</g>
<g>
	<g>
		<path d="M310.005,328.895h-0.475c-5.523,0-10,4.477-10,10s4.477,10,10,10h0.475c5.523,0,10-4.477,10-10    C320.005,333.373,315.528,328.895,310.005,328.895z" fill="#e3e3e3"/>
	</g>
</g>
<g>
	<g>
		<path d="M279.085,361.452h-0.475c-5.523,0-10,4.477-10,10s4.477,10,10,10h0.475c5.523,0,10-4.477,10-10    S284.608,361.452,279.085,361.452z" fill="#e3e3e3"/>
	</g>
</g>
<g>
	<g>
		<path d="M239.076,391.103h-0.475c-5.523,0-10,4.477-10,10s4.477,10,10,10h0.475c5.523,0,10-4.477,10-10    S244.599,391.103,239.076,391.103z" fill="#e3e3e3"/>
	</g>
</g>
<g>
	<g>
		<path d="M193.728,413.777h-0.475c-5.523,0-10,4.477-10,10s4.477,10,10,10h0.475c5.523,0,10-4.477,10-10    S199.251,413.777,193.728,413.777z" fill="#e3e3e3"/>
	</g>
</g>
<g>
	<g>
		<path d="M318.726,419.591h-0.475c-5.523,0-10,4.477-10,10s4.477,10,10,10h0.475c5.523,0,10-4.477,10-10    S324.249,419.591,318.726,419.591z" fill="#e3e3e3"/>
	</g>
</g>
<g>
	<g>
		<path d="M258.04,38.13h-0.475c-5.523,0-10,4.477-10,10s4.477,10,10,10h0.475c5.523,0,10-4.477,10-10S263.563,38.13,258.04,38.13z" fill="#e3e3e3"/>
	</g>
</g>
<g>
	<g>
		<path d="M199.32,38.13h-0.475c-5.523,0-10,4.477-10,10s4.477,10,10,10h0.475c5.523,0,10-4.477,10-10S204.843,38.13,199.32,38.13z" fill="#e3e3e3"/>
	</g>
</g>
<g>
	<g>
		<path d="M316.76,38.13h-0.475c-5.523,0-10,4.477-10,10s4.477,10,10,10h0.475c5.523,0,10-4.477,10-10S322.283,38.13,316.76,38.13z" fill="#e3e3e3"/>
	</g>
</g>
<g>
	<g>
		<path d="M287.163,63.64h-0.475c-5.523,0-10,4.477-10,10s4.477,10,10,10h0.475c5.523,0,10-4.477,10-10S292.686,63.64,287.163,63.64    z" fill="#e3e3e3"/>
	</g>
</g>
<g>
	<g>
		<path d="M228.917,63.64h-0.475c-5.523,0-10,4.477-10,10s4.477,10,10,10h0.475c5.523,0,10-4.477,10-10S234.44,63.64,228.917,63.64z    " fill="#e3e3e3"/>
	</g>
</g>
<g>
	<g>
		<path d="M221.093,104.167h-0.475c-5.523,0-10,4.477-10,10s4.477,10,10,10h0.475c5.523,0,10-4.477,10-10    S226.616,104.167,221.093,104.167z" fill="#e3e3e3"/>
	</g>
</g>
<g>
	<g>
		<path d="M277.492,451.999h-0.475c-5.523,0-10,4.477-10,10s4.477,10,10,10h0.475c5.523,0,10-4.477,10-10    C287.492,456.476,283.015,451.999,277.492,451.999z" fill="#e3e3e3"/>
	</g>
</g>
<g>
</g>
<g>
</g>
<g>
</g>
<g>
</g>
<g>
</g>
<g>
</g>
<g>
</g>
<g>
</g>
<g>
</g>
<g>
</g>
<g>
</g>
<g>
</g>
<g>
</g>
<g>
</g>
<g>
</g>
</svg>
